<mxfile host="app.diagrams.net" modified="2023-11-09T11:28:28.428Z" agent="Mozilla/5.0 (Windows NT 10.0; Win64; x64; rv:109.0) Gecko/20100101 Firefox/119.0" etag="lXSqHhTSq7iBxiqPLnTI" version="22.0.8" type="device">
  <diagram name="Strona-1" id="Q3_LiWpaHbaW6wbGfc4c">
    <mxGraphModel dx="1050" dy="511" grid="1" gridSize="10" guides="1" tooltips="1" connect="1" arrows="1" fold="1" page="1" pageScale="1" pageWidth="827" pageHeight="1169" math="0" shadow="0">
      <root>
        <mxCell id="0" />
        <mxCell id="1" parent="0" />
        <mxCell id="YGNpBpwNnhqencsFY6c2-1" value="Użytkownik" style="shape=umlActor;verticalLabelPosition=bottom;verticalAlign=top;html=1;outlineConnect=0;" parent="1" vertex="1">
          <mxGeometry x="150" y="260" width="30" height="60" as="geometry" />
        </mxCell>
        <mxCell id="YGNpBpwNnhqencsFY6c2-2" value="&lt;font style=&quot;font-size: 11px;&quot;&gt;Wybierz pozycję z menu&lt;/font&gt;" style="ellipse;whiteSpace=wrap;html=1;" parent="1" vertex="1">
          <mxGeometry x="370" y="360" width="100" height="60" as="geometry" />
        </mxCell>
        <mxCell id="YGNpBpwNnhqencsFY6c2-3" value="Uruchom grę" style="ellipse;whiteSpace=wrap;html=1;" parent="1" vertex="1">
          <mxGeometry x="370" y="40" width="100" height="60" as="geometry" />
        </mxCell>
        <mxCell id="YGNpBpwNnhqencsFY6c2-4" value="Rozpocznij od nowa grę" style="ellipse;whiteSpace=wrap;html=1;" parent="1" vertex="1">
          <mxGeometry x="370" y="240" width="100" height="60" as="geometry" />
        </mxCell>
        <mxCell id="YGNpBpwNnhqencsFY6c2-5" value="Rozpocznij poziom N" style="ellipse;whiteSpace=wrap;html=1;" parent="1" vertex="1">
          <mxGeometry x="550" y="40" width="100" height="60" as="geometry" />
        </mxCell>
        <mxCell id="YGNpBpwNnhqencsFY6c2-6" value="&lt;font style=&quot;font-size: 11px;&quot;&gt;Rozpocznij pomiar czasu&lt;/font&gt;" style="ellipse;whiteSpace=wrap;html=1;" parent="1" vertex="1">
          <mxGeometry x="550" y="140" width="100" height="60" as="geometry" />
        </mxCell>
        <mxCell id="35unD17b4p97-C-NSMaU-4" style="edgeStyle=orthogonalEdgeStyle;rounded=0;orthogonalLoop=1;jettySize=auto;html=1;exitX=1;exitY=0.5;exitDx=0;exitDy=0;entryX=0;entryY=0.5;entryDx=0;entryDy=0;" edge="1" parent="1" source="YGNpBpwNnhqencsFY6c2-7" target="35unD17b4p97-C-NSMaU-3">
          <mxGeometry relative="1" as="geometry" />
        </mxCell>
        <mxCell id="YGNpBpwNnhqencsFY6c2-7" value="Zakończ pomiar czasu" style="ellipse;whiteSpace=wrap;html=1;" parent="1" vertex="1">
          <mxGeometry x="550" y="240" width="100" height="60" as="geometry" />
        </mxCell>
        <mxCell id="YGNpBpwNnhqencsFY6c2-9" value="" style="endArrow=classic;html=1;rounded=0;entryX=1;entryY=0.5;entryDx=0;entryDy=0;exitX=0;exitY=0.5;exitDx=0;exitDy=0;" parent="1" source="YGNpBpwNnhqencsFY6c2-7" target="YGNpBpwNnhqencsFY6c2-4" edge="1">
          <mxGeometry width="50" height="50" relative="1" as="geometry">
            <mxPoint x="550" y="310" as="sourcePoint" />
            <mxPoint x="600" y="260" as="targetPoint" />
          </mxGeometry>
        </mxCell>
        <mxCell id="YGNpBpwNnhqencsFY6c2-10" value="" style="endArrow=classic;html=1;rounded=0;entryX=0.5;entryY=1;entryDx=0;entryDy=0;exitX=0.5;exitY=0;exitDx=0;exitDy=0;" parent="1" source="YGNpBpwNnhqencsFY6c2-4" target="YGNpBpwNnhqencsFY6c2-3" edge="1">
          <mxGeometry width="50" height="50" relative="1" as="geometry">
            <mxPoint x="560" y="310" as="sourcePoint" />
            <mxPoint x="610" y="260" as="targetPoint" />
          </mxGeometry>
        </mxCell>
        <mxCell id="YGNpBpwNnhqencsFY6c2-11" value="" style="endArrow=classic;html=1;rounded=0;entryX=0;entryY=0.5;entryDx=0;entryDy=0;exitX=1;exitY=0.5;exitDx=0;exitDy=0;" parent="1" source="YGNpBpwNnhqencsFY6c2-3" target="YGNpBpwNnhqencsFY6c2-5" edge="1">
          <mxGeometry width="50" height="50" relative="1" as="geometry">
            <mxPoint x="550" y="310" as="sourcePoint" />
            <mxPoint x="600" y="260" as="targetPoint" />
          </mxGeometry>
        </mxCell>
        <mxCell id="YGNpBpwNnhqencsFY6c2-24" value="" style="endArrow=classic;html=1;rounded=0;entryX=0.5;entryY=0;entryDx=0;entryDy=0;exitX=0.5;exitY=1;exitDx=0;exitDy=0;" parent="1" source="YGNpBpwNnhqencsFY6c2-4" target="YGNpBpwNnhqencsFY6c2-2" edge="1">
          <mxGeometry width="50" height="50" relative="1" as="geometry">
            <mxPoint x="560" y="290" as="sourcePoint" />
            <mxPoint x="610" y="240" as="targetPoint" />
          </mxGeometry>
        </mxCell>
        <mxCell id="YGNpBpwNnhqencsFY6c2-25" value="Steruj postacią" style="ellipse;whiteSpace=wrap;html=1;" parent="1" vertex="1">
          <mxGeometry x="230" y="260" width="100" height="60" as="geometry" />
        </mxCell>
        <mxCell id="YGNpBpwNnhqencsFY6c2-26" value="" style="endArrow=classic;html=1;rounded=0;entryX=0;entryY=0.5;entryDx=0;entryDy=0;exitX=0.5;exitY=0.5;exitDx=0;exitDy=0;exitPerimeter=0;" parent="1" source="YGNpBpwNnhqencsFY6c2-1" target="YGNpBpwNnhqencsFY6c2-3" edge="1">
          <mxGeometry width="50" height="50" relative="1" as="geometry">
            <mxPoint x="400" y="290" as="sourcePoint" />
            <mxPoint x="450" y="240" as="targetPoint" />
          </mxGeometry>
        </mxCell>
        <mxCell id="YGNpBpwNnhqencsFY6c2-27" value="" style="endArrow=classic;html=1;rounded=0;entryX=0;entryY=0.5;entryDx=0;entryDy=0;exitX=0.5;exitY=0.5;exitDx=0;exitDy=0;exitPerimeter=0;" parent="1" source="YGNpBpwNnhqencsFY6c2-1" target="YGNpBpwNnhqencsFY6c2-25" edge="1">
          <mxGeometry width="50" height="50" relative="1" as="geometry">
            <mxPoint x="180" y="290" as="sourcePoint" />
            <mxPoint x="450" y="240" as="targetPoint" />
          </mxGeometry>
        </mxCell>
        <mxCell id="YGNpBpwNnhqencsFY6c2-28" value="" style="endArrow=classic;html=1;rounded=0;entryX=0;entryY=0.5;entryDx=0;entryDy=0;exitX=0.5;exitY=0.5;exitDx=0;exitDy=0;exitPerimeter=0;" parent="1" source="YGNpBpwNnhqencsFY6c2-1" target="YGNpBpwNnhqencsFY6c2-2" edge="1">
          <mxGeometry width="50" height="50" relative="1" as="geometry">
            <mxPoint x="400" y="290" as="sourcePoint" />
            <mxPoint x="450" y="240" as="targetPoint" />
          </mxGeometry>
        </mxCell>
        <mxCell id="YGNpBpwNnhqencsFY6c2-29" value="Zakończ grę" style="ellipse;whiteSpace=wrap;html=1;" parent="1" vertex="1">
          <mxGeometry x="550" y="360" width="100" height="60" as="geometry" />
        </mxCell>
        <mxCell id="YGNpBpwNnhqencsFY6c2-30" value="" style="endArrow=classic;html=1;rounded=0;entryX=0.5;entryY=0;entryDx=0;entryDy=0;exitX=0.5;exitY=1;exitDx=0;exitDy=0;" parent="1" source="YGNpBpwNnhqencsFY6c2-7" target="YGNpBpwNnhqencsFY6c2-29" edge="1">
          <mxGeometry width="50" height="50" relative="1" as="geometry">
            <mxPoint x="400" y="290" as="sourcePoint" />
            <mxPoint x="450" y="240" as="targetPoint" />
          </mxGeometry>
        </mxCell>
        <mxCell id="YGNpBpwNnhqencsFY6c2-31" value="" style="endArrow=classic;html=1;rounded=0;entryX=1;entryY=0.5;entryDx=0;entryDy=0;exitX=0;exitY=0.5;exitDx=0;exitDy=0;" parent="1" source="YGNpBpwNnhqencsFY6c2-29" target="YGNpBpwNnhqencsFY6c2-2" edge="1">
          <mxGeometry width="50" height="50" relative="1" as="geometry">
            <mxPoint x="400" y="290" as="sourcePoint" />
            <mxPoint x="450" y="240" as="targetPoint" />
          </mxGeometry>
        </mxCell>
        <mxCell id="YGNpBpwNnhqencsFY6c2-34" value="" style="endArrow=classic;html=1;rounded=0;entryX=0.5;entryY=0;entryDx=0;entryDy=0;exitX=0.5;exitY=1;exitDx=0;exitDy=0;" parent="1" source="YGNpBpwNnhqencsFY6c2-6" target="YGNpBpwNnhqencsFY6c2-7" edge="1">
          <mxGeometry width="50" height="50" relative="1" as="geometry">
            <mxPoint x="400" y="290" as="sourcePoint" />
            <mxPoint x="450" y="240" as="targetPoint" />
          </mxGeometry>
        </mxCell>
        <mxCell id="35unD17b4p97-C-NSMaU-2" value="" style="endArrow=classic;html=1;rounded=0;entryX=0.5;entryY=0;entryDx=0;entryDy=0;exitX=0.5;exitY=1;exitDx=0;exitDy=0;" edge="1" parent="1" source="YGNpBpwNnhqencsFY6c2-5" target="YGNpBpwNnhqencsFY6c2-6">
          <mxGeometry width="50" height="50" relative="1" as="geometry">
            <mxPoint x="390" y="290" as="sourcePoint" />
            <mxPoint x="440" y="240" as="targetPoint" />
          </mxGeometry>
        </mxCell>
        <mxCell id="35unD17b4p97-C-NSMaU-5" style="edgeStyle=orthogonalEdgeStyle;rounded=0;orthogonalLoop=1;jettySize=auto;html=1;exitX=0.5;exitY=0;exitDx=0;exitDy=0;entryX=1;entryY=0.5;entryDx=0;entryDy=0;" edge="1" parent="1" source="35unD17b4p97-C-NSMaU-3" target="YGNpBpwNnhqencsFY6c2-5">
          <mxGeometry relative="1" as="geometry" />
        </mxCell>
        <mxCell id="35unD17b4p97-C-NSMaU-3" value="&quot;Pokój ratunkowy&quot;" style="ellipse;whiteSpace=wrap;html=1;" vertex="1" parent="1">
          <mxGeometry x="690" y="240" width="100" height="60" as="geometry" />
        </mxCell>
      </root>
    </mxGraphModel>
  </diagram>
</mxfile>
